<svg id="Icon_" data-name="Icon " xmlns="http://www.w3.org/2000/svg" width="24.023" height="24" viewBox="0 0 24.023 24">
  <defs>
    <style>
      .cls-1 {
        fill: #fcfcfc;
        opacity: 0;
      }

      .cls-2 {
        fill: none;
        stroke: #000;
        stroke-linecap: round;
        stroke-linejoin: round;
        stroke-width: 2px;
      }
    </style>
  </defs>
  <rect id="Area_ICON:feather_twitter_SIZE:LARGE_STYLE:STYLE1_" data-name="Area [ICON:feather/twitter][SIZE:LARGE][STYLE:STYLE1]" class="cls-1" width="24" height="24" transform="translate(0.023)"/>
  <g id="Icon" transform="translate(1 2.99)">
    <path id="Path" class="cls-2" d="M23,3a10.921,10.921,0,0,1-3.14,1.53,4.48,4.48,0,0,0-7.86,3v1A10.659,10.659,0,0,1,3,4s-4,9,5,13a11.639,11.639,0,0,1-7,2c9,5,20,0,20-11.5a4.532,4.532,0,0,0-.08-.83A7.716,7.716,0,0,0,23,3Z" transform="translate(-1 -2.99)"/>
  </g>
</svg>
