<svg id="Icon_" data-name="Icon " xmlns="http://www.w3.org/2000/svg" width="24" height="24" viewBox="0 0 24 24">
  <defs>
    <style>
      .cls-1, .cls-2 {
        fill: #fff;
      }

      .cls-1 {
        opacity: 0;
      }

      .cls-2 {
        stroke: #004eff;
        stroke-linecap: round;
        stroke-linejoin: round;
        stroke-width: 2px;
      }
    </style>
  </defs>
  <rect id="Area_ICON:feather_phone_SIZE:LARGE_STYLE:STYLE1_" data-name="Area [ICON:feather/phone][SIZE:LARGE][STYLE:STYLE1]" class="cls-1" width="24" height="24"/>
  <g id="Icon" transform="translate(2.112 2)">
    <path id="Path" class="cls-2" d="M22,16.92v3a2,2,0,0,1-2.18,2,19.788,19.788,0,0,1-8.63-3.07,19.5,19.5,0,0,1-6-6A19.788,19.788,0,0,1,2.12,4.18,2,2,0,0,1,4.11,2h3a2,2,0,0,1,2,1.72,12.833,12.833,0,0,0,.7,2.81,2,2,0,0,1-.45,2.11L8.09,9.91a16,16,0,0,0,6,6l1.27-1.27a2,2,0,0,1,2.11-.45,12.833,12.833,0,0,0,2.81.7A2,2,0,0,1,22,16.92Z" transform="translate(-2.112 -2)"/>
  </g>
</svg>
